HIERARCHY
ROOT RootJoint
{
    OFFSET   0.000000   0.000000   0.000000
    CHANNELS 6 Xposition Yposition Zposition Xrotation Yrotation Zrotation
    JOINT pelvis_lowerback
    {
        OFFSET   0.000000   0.093605   0.000000
        CHANNELS 3 Xrotation Yrotation Zrotation
        JOINT lowerback_torso
        {
            OFFSET   0.000000   0.100000   0.000000
            CHANNELS 3 Xrotation Yrotation Zrotation
            JOINT torso_head
            {
                OFFSET   0.000000   0.282350   0.000000
                CHANNELS 3 Xrotation Yrotation Zrotation
                End Site
                {
                    OFFSET   0.000000   0.192650   0.000000
                }
            }
            JOINT rTorso_Clavicle
            {
                OFFSET  -0.001000   0.157500   0.000000
                CHANNELS 3 Xrotation Yrotation Zrotation
                JOINT rShoulder
                {
                    OFFSET  -0.117647   0.000000   0.000000
                    CHANNELS 3 Xrotation Yrotation Zrotation
                    JOINT rElbow
                    {
                        OFFSET  -0.245000   0.000000   0.000000
                        CHANNELS 3 Xrotation Yrotation Zrotation
                        JOINT rWrist
                        {
                            OFFSET  -0.240000   0.000000   0.000000
                            CHANNELS 3 Xrotation Yrotation Zrotation
                            End Site
                            {
                                OFFSET  -0.116353  -0.002500   0.000000
                            }
                        }
                    }
                }
            }
            JOINT lTorso_Clavicle
            {
                OFFSET   0.001000   0.157500   0.000000
                CHANNELS 3 Xrotation Yrotation Zrotation
                JOINT lShoulder
                {
                    OFFSET   0.117647   0.000000   0.000000
                    CHANNELS 3 Xrotation Yrotation Zrotation
                    JOINT lElbow
                    {
                        OFFSET   0.245000   0.000000   0.000000
                        CHANNELS 3 Xrotation Yrotation Zrotation
                        JOINT lWrist
                        {
                            OFFSET   0.240000   0.000000   0.000000
                            CHANNELS 3 Xrotation Yrotation Zrotation
                            End Site
                            {
                                OFFSET   0.116353  -0.002500   0.000000
                            }
                        }
                    }
                }
            }
        }
    }
    JOINT rHip
    {
        OFFSET  -0.100000  -0.051395   0.000000
        CHANNELS 3 Xrotation Yrotation Zrotation
        JOINT rKnee
        {
            OFFSET   0.000000  -0.410000   0.000000
            CHANNELS 3 Xrotation Yrotation Zrotation
            JOINT rAnkle
            {
                OFFSET   0.000000  -0.390000   0.000000
                CHANNELS 3 Xrotation Yrotation Zrotation
                JOINT rToeJoint
                {
                    OFFSET   0.000000  -0.050000   0.130000
                    CHANNELS 3 Xrotation Yrotation Zrotation
                    End Site
                    {
                        OFFSET  -0.010000   0.002000   0.060000
                    }
                }
            }
        }
    }
    JOINT lHip
    {
        OFFSET   0.100000  -0.051395   0.000000
        CHANNELS 3 Xrotation Yrotation Zrotation
        JOINT lKnee
        {
            OFFSET   0.000000  -0.410000   0.000000
            CHANNELS 3 Xrotation Yrotation Zrotation
            JOINT lAnkle
            {
                OFFSET   0.000000  -0.390000   0.000000
                CHANNELS 3 Xrotation Yrotation Zrotation
                JOINT lToeJoint
                {
                    OFFSET   0.000000  -0.050000   0.130000
                    CHANNELS 3 Xrotation Yrotation Zrotation
                    End Site
                    {
                        OFFSET   0.010000   0.002000   0.060000
                    }
                }
            }
        }
    }
}
MOTION
Frames: 11
Frame Time:   0.008333
 -2.376719   0.925631   3.975860   0.000000   0.000000   0.000000   0.000000   0.000000   0.000000   0.000000   0.000000   0.000000   0.000000   0.000000   0.000000   0.000000   0.000000   0.000000   0.000000   0.000000   0.000000   0.000000   0.000000   0.000000   0.000000   0.000000   0.000000   0.000000   0.000000   0.000000   0.000000   0.000000   0.000000   0.000000   0.000000   0.000000   0.000000   0.000000   0.000000   0.000000   0.000000   0.000000   0.000000   0.000000   0.000000   0.000000   0.000000   0.000000   0.000000   0.000000   0.000000   0.000000   0.000000   0.000000   0.000000   0.000000   0.000000   0.000000   0.000000   0.000000   0.000000   0.000000   0.000000
 -2.376434   0.926176   3.976206  -0.198582   0.070753   0.190726   0.081405   0.080391  -0.213297   0.097825  -0.139947   0.002544   0.034936   0.097451   0.013549   0.246832  -0.377666   0.425484   0.890037   0.341777   2.021356   0.019238   0.903045  -0.008933   0.267545  -0.445754  -2.809979   0.081164   0.306170  -0.205105   0.709592  -0.141380  -2.158911   0.030357  -1.450820   0.010096   0.281484   0.530442   2.785935  -0.091312  -0.022422  -0.370640   1.197788   0.001886   0.000478  -1.065690  -0.284520   0.063906   0.025244   0.000025  -0.000052   0.064132  -0.336585  -0.141011   0.666225  -0.000299  -0.001542  -0.949497   0.215757   0.262450   0.214962  -0.000581  -0.000091
 -2.376041   0.927110   3.976860  -0.446567   0.197374   0.392692   0.106771   0.141651  -0.415730   0.196448  -0.296883   0.004197   0.084932   0.191803   0.020095   0.490383  -0.697968   1.567483   1.750288   0.754409   4.618527   0.044595   1.785076  -0.014819   0.570114  -0.605490  -4.906133   0.164580   0.534476  -1.113794   1.392844  -0.383085  -4.880495   0.069819  -2.867424   0.016410   0.596141   0.604183   4.856047  -0.102138  -0.050712  -0.872147   2.489055   0.004929   0.001320  -2.056630  -0.556898   0.116260   0.020096   0.000009  -0.000034   0.207020  -0.665624  -0.219421   1.388471  -0.001059  -0.002483  -1.841349   0.413382   0.510229   0.353119  -0.000908  -0.000073
 -2.375591   0.928030   3.977718  -0.686549   0.352877   0.579777   0.076680   0.188541  -0.590071   0.252537  -0.456865   0.017298   0.125169   0.280309   0.024525   0.724562  -0.964430   3.141249   2.573101   1.224943   7.589654   0.069451   2.617175  -0.018121   0.864104  -0.657833  -6.169295   0.245457   0.704124  -2.456463   2.046468  -0.692015  -7.968552   0.108186  -4.204671   0.019608   0.906009   0.520021   6.108753  -0.073359  -0.079737  -1.447854   3.734730   0.008267   0.002074  -2.979146  -0.813465   0.159614   0.016539  -0.000003  -0.000023   0.378041  -0.970229  -0.215245   2.089321  -0.002065  -0.002834  -2.674276   0.595399   0.744371   0.472780  -0.001166  -0.000017
 -2.375109   0.928645   3.978701  -0.908924   0.520096   0.749747   0.006643   0.227138  -0.738124   0.269777  -0.613210   0.042826   0.153794   0.363086   0.028527   0.952212  -1.193592   4.956705   3.358523   1.748487  10.810715   0.090838   3.397236  -0.019738   1.145044  -0.664973  -6.810088   0.326116   0.841069  -4.045420   2.672408  -1.053265 -11.301321   0.140881  -5.457947   0.020862   1.203036   0.383612   6.753476  -0.023860  -0.108900  -2.074486   4.912536   0.011449   0.002534  -3.839899  -1.054634   0.195394   0.009138  -0.000030  -0.000011   0.561933  -1.251785  -0.136980   2.754968  -0.003135  -0.002826  -3.452699   0.763257   0.965692   0.576892  -0.001354   0.000044
 -2.374639   0.928731   3.979749  -1.114384   0.689698   0.905964  -0.089226   0.260653  -0.867538   0.260067  -0.762883   0.070277   0.173197   0.440448   0.035015   1.175267  -1.396064   6.892348   4.105610   2.321791  14.200599   0.107597   4.126218  -0.020334   1.411654  -0.653147  -7.022479   0.409634   0.959742  -5.784924   3.254014  -1.446717 -14.707294   0.165751  -6.629076   0.020836   1.483917   0.233011   6.939897   0.036951  -0.137811  -2.736394   6.020452   0.014214   0.002681  -4.643478  -1.281092   0.224690  -0.002286  -0.000072   0.000001   0.752216  -1.512551   0.003443   3.383915  -0.004166  -0.002618  -4.180207   0.917986   1.174735   0.667843  -0.001479   0.000093
 -2.374228   0.928116   3.980816  -1.305162   0.857145   1.051980  -0.199676   0.290882  -0.987625   0.234233  -0.904414   0.088750   0.185809   0.512687   0.044550   1.394599  -1.577288   8.868692   4.812515   2.943118  17.705209   0.119592   4.806544  -0.020358   1.664017  -0.633854  -6.949665   0.498306   1.067134  -7.610889   3.776687  -1.851961 -18.032205   0.182255  -7.722318   0.019976   1.747807   0.081463   6.783643   0.103250  -0.166034  -3.419872   7.060453   0.016423   0.002576  -5.393813  -1.493519   0.248439  -0.016807  -0.000124   0.000012   0.944613  -1.754466   0.195853   3.976994  -0.005100  -0.002302  -4.860057   1.060575   1.372015   0.747764  -0.001550   0.000130
 -2.373953   0.926137   3.981259  -1.275094   0.876203   1.102890  -0.413145   0.351495  -0.966311   0.212893  -1.023545   0.041959   0.032417   0.527759   0.039869   1.634099  -1.597256  10.168344   5.628732   3.671004  21.327390   0.134550   5.675510  -0.023994   1.851345  -0.646994  -5.970775   0.709332   1.187844  -8.671556   4.229540  -2.230969 -21.440354   0.193097  -8.907322   0.021571   1.947136  -0.103287   5.726006  -0.270518  -0.296194  -3.932713   8.357550   0.018147  -0.000480  -6.251441  -1.730510   0.507882   0.069785   0.000053  -0.000281   1.007379  -1.833598   0.443101   3.966574  -0.004052  -0.001839  -5.088871   1.126322   1.634642   0.839436  -0.001684   0.000117
 -2.373737   0.922995   3.981358  -1.226789   0.897927   1.130938  -0.557919   0.398222  -0.930611   0.208046  -1.128970   0.014273  -0.119577   0.535937   0.028428   1.837977  -1.555111  11.254662   6.335358   4.438951  24.626376   0.141265   6.508840  -0.026787   2.055368  -0.531420  -4.985360   0.896316   1.266488  -9.486993   4.625016  -2.627895 -24.511392   0.193519 -10.025241   0.022960   2.147656  -0.355124   4.715729  -0.676127  -0.426925  -4.361957   9.571963   0.018448  -0.002819  -7.050610  -1.956571   0.747088   0.148431   0.000149  -0.000484   1.009970  -1.907796   0.661246   3.858626  -0.003005  -0.001444  -5.304448   1.185797   1.880149   0.939938  -0.001771   0.000112
 -2.373538   0.918792   3.981262  -1.177116   0.928422   1.149039  -0.652518   0.443088  -0.886954   0.225071  -1.222907   0.004987  -0.255431   0.542774   0.015520   2.009239  -1.479956  12.183105   6.943324   5.215037  27.638654   0.142021   7.297899  -0.028617   2.260078  -0.353018  -4.156637   1.055362   1.311852 -10.132084   4.965300  -3.033528 -27.293058   0.187331 -11.077204   0.023752   2.344800  -0.642836   3.901948  -1.070850  -0.546925  -4.730948  10.694955   0.017847  -0.004325  -7.796247  -2.170113   0.967430   0.220733   0.000196  -0.000607   0.969055  -1.977258   0.837052   3.726292  -0.002175  -0.001131  -5.507344   1.239946   2.109347   1.030649  -0.001745   0.000116
 -2.373305   0.918392   3.981571  -1.274939   1.051392   1.433030  -0.680860   0.458003  -1.051681   0.301758  -1.330093  -0.082467  -0.364203   0.548028  -0.004821   2.171425  -1.401154  13.296012   7.469206   5.974776  30.515083   0.140608   8.028030  -0.029226   2.456069  -0.209430  -3.495524   1.198097   1.338024 -10.911033   5.260545  -3.431901 -29.902387   0.179710 -12.048574   0.023244   2.534581  -0.877364   3.316567  -1.462429  -0.554449  -5.079656  11.810443   0.014892  -0.003236  -8.457501  -2.233323   1.311432   0.062605   0.000549  -0.000487   0.903504  -1.986325   0.522391   3.977334  -0.001663  -0.000632  -5.176334   1.337570   2.230121   1.192866  -0.001539   0.000388
